<svg width="330" height="120" viewBox="0 0 330 120" fill="none" xmlns="http://www.w3.org/2000/svg">
<path fill-rule="evenodd" clip-rule="evenodd" d="M138.999 44.848C134.58 44.848 130.925 46.1268 128.366 48.2794C125.802 50.4357 124.363 53.451 124.363 56.8552C124.363 60.2462 125.804 63.2015 128.371 65.2999C130.931 67.3931 134.585 68.615 138.999 68.615C143.412 68.615 147.044 67.393 149.582 65.2985C152.126 63.1988 153.542 60.2434 153.542 56.8552C153.542 53.4537 152.127 50.4384 149.587 48.2808C147.05 46.1269 143.418 44.848 138.999 44.848ZM207.498 44.848C203.079 44.848 199.424 46.1268 196.865 48.2794C194.302 50.4357 192.863 53.451 192.863 56.8552C192.863 60.2462 194.304 63.2015 196.871 65.2999C199.431 67.3931 203.084 68.615 207.498 68.615C211.912 68.615 215.544 67.393 218.081 65.2985C220.625 63.1988 222.041 60.2434 222.041 56.8552C222.041 53.4537 220.627 50.4384 218.086 48.2808C215.55 46.1269 211.917 44.848 207.498 44.848ZM50.4812 44.9407C47.2054 44.9407 44.2541 45.6404 42.1046 46.9334C39.947 48.2312 38.5668 50.1525 38.5668 52.5567C38.5668 53.7626 38.8756 54.7543 39.4368 55.5604C39.9949 56.3622 40.7813 56.9499 41.6897 57.388C43.4898 58.2561 45.8545 58.5746 48.1367 58.7716C48.7765 58.8268 49.4086 58.8725 50.0238 58.917C51.6449 59.0342 53.1483 59.1429 54.364 59.3946C55.1991 59.5674 55.834 59.7969 56.2519 60.1015C56.6447 60.3877 56.843 60.7348 56.843 61.2155C56.843 62.246 56.0874 62.9936 54.7575 63.5034C53.4416 64.0078 51.7204 64.2066 50.172 64.2066C47.1867 64.2066 43.9335 63.5148 40.9796 61.0681C40.7844 60.9064 40.4963 60.9276 40.3269 61.1161L37.5746 64.1776C37.4108 64.3598 37.4135 64.6371 37.5808 64.8161C39.0101 66.3451 42.7278 68.9242 50.2647 68.9242C57.8138 68.9242 62.1792 65.056 62.1792 60.597C62.1792 59.4621 61.8703 58.5179 61.3149 57.7417C60.7635 56.9711 59.9884 56.3928 59.094 55.9512C57.3185 55.0746 54.986 54.6963 52.7259 54.4602C51.8657 54.3704 51.0207 54.3012 50.2122 54.235C48.854 54.1239 47.5989 54.0211 46.5477 53.8429C45.7135 53.7015 45.0749 53.5214 44.655 53.2846C44.2526 53.0578 44.1194 52.8242 44.1194 52.5567C44.1194 51.628 44.6818 50.9194 45.7432 50.417C46.815 49.9097 48.3218 49.6584 49.9864 49.6584C51.8135 49.6584 53.8077 49.9384 55.545 50.3784C57.2989 50.8226 58.7263 51.4138 59.4651 51.9993C59.565 52.0784 59.6926 52.1139 59.8191 52.0975C59.9455 52.0812 60.06 52.0144 60.1365 51.9124C60.5593 51.3486 61.1201 50.5541 61.5726 49.9044C61.7994 49.5787 62 49.288 62.1439 49.0787C62.2158 48.974 62.2737 48.8896 62.3135 48.8314L62.3754 48.7408C62.5223 48.5253 62.4668 48.2315 62.2514 48.0845C60.2241 46.7007 56.0491 44.9407 50.4812 44.9407ZM16.5196 45.4355C16.3533 45.4355 16.1993 45.5229 16.114 45.6656L3.06399 67.4981C2.97674 67.6441 2.97467 67.8257 3.05859 67.9736C3.14251 68.1216 3.29945 68.213 3.46952 68.213H8.44833C8.61867 68.213 8.77582 68.1213 8.85964 67.973L11.9401 62.5229H24.9159L27.5999 67.95C27.6796 68.111 27.8437 68.213 28.0234 68.213H32.8167C32.9816 68.213 33.1347 68.1269 33.2204 67.986C33.3061 67.845 33.312 67.6695 33.2361 67.5231L21.9178 45.6905C21.8366 45.5339 21.6748 45.4355 21.4984 45.4355H16.5196ZM271.913 45.4355C271.652 45.4355 271.44 45.647 271.44 45.908V67.7405C271.44 68.0015 271.652 68.213 271.913 68.213H292.91C293.171 68.213 293.383 68.0015 293.383 67.7405V64.0605C293.383 63.7996 293.171 63.5881 292.91 63.5881H276.467V58.8429H290.962C291.223 58.8429 291.435 58.6314 291.435 58.3705V54.7832C291.435 54.5223 291.223 54.3108 290.962 54.3108H276.467V50.0604H292.014C292.275 50.0604 292.486 49.8489 292.486 49.588V45.908C292.486 45.647 292.275 45.4355 292.014 45.4355H271.913ZM67.6918 45.5592C67.4308 45.5592 67.2193 45.7707 67.2193 46.0317V49.7117C67.2193 49.9726 67.4308 50.1841 67.6918 50.1841H75.9709V67.7405C75.9709 68.0015 76.1824 68.213 76.4433 68.213H80.5254C80.7863 68.213 80.9978 68.0015 80.9978 67.7405V50.1841H89.5243C89.7852 50.1841 89.9968 49.9726 89.9968 49.7117V46.0317C89.9968 45.7707 89.7852 45.5592 89.5243 45.5592H67.6918ZM96.647 45.5592C96.3861 45.5592 96.1746 45.7707 96.1746 46.0317V67.7405C96.1746 68.0015 96.3861 68.213 96.647 68.213H100.791C101.052 68.213 101.263 68.0015 101.263 67.7405V59.6779H107.454L113.837 68.0275C113.926 68.1444 114.065 68.213 114.212 68.213H119.407C119.587 68.213 119.752 68.1105 119.831 67.9488C119.911 67.7871 119.891 67.5943 119.781 67.4518L113.532 59.3599C115.186 58.949 116.464 58.1577 117.356 57.0789C118.377 55.8427 118.859 54.2689 118.859 52.5567C118.859 50.6099 118.21 48.8442 116.838 47.5681C115.467 46.2946 113.431 45.5592 110.749 45.5592H96.647ZM161.432 45.5592C161.171 45.5592 160.96 45.7707 160.96 46.0317V67.7405C160.96 68.0015 161.171 68.213 161.432 68.213H165.638C165.899 68.213 166.11 68.0015 166.11 67.7405V52.3289L179.441 68.0461C179.531 68.152 179.662 68.213 179.801 68.213H184.997C185.257 68.213 185.469 68.0015 185.469 67.7405V46.0317C185.469 45.7707 185.257 45.5592 184.997 45.5592H180.915C180.654 45.5592 180.442 45.7707 180.442 46.0317V61.356L167.111 45.7251C167.021 45.6198 166.889 45.5592 166.751 45.5592H161.432ZM229.932 45.5592C229.671 45.5592 229.459 45.7707 229.459 46.0317V67.7405C229.459 68.0015 229.671 68.213 229.932 68.213H234.014C234.275 68.213 234.486 68.0015 234.486 67.7405V52.2594L243.875 67.9827C243.96 68.1255 244.114 68.213 244.281 68.213H247.961C248.125 68.213 248.277 68.1278 248.363 67.9879L258.095 52.1556V67.7405C258.095 68.0015 258.307 68.213 258.568 68.213H262.65C262.911 68.213 263.122 68.0015 263.122 67.7405V46.0317C263.122 45.7707 262.911 45.5592 262.65 45.5592H257.052C256.888 45.5592 256.736 45.6445 256.65 45.7844L246.421 62.4359L236.523 45.7902C236.438 45.647 236.283 45.5592 236.117 45.5592H229.932ZM300.636 45.5592C300.375 45.5592 300.164 45.7707 300.164 46.0317V67.7405C300.164 68.0015 300.375 68.213 300.636 68.213H304.78C305.041 68.213 305.252 68.0015 305.252 67.7405V59.6779H311.443L317.826 68.0275C317.915 68.1444 318.054 68.213 318.201 68.213H323.396C323.577 68.213 323.741 68.1105 323.82 67.9488C323.9 67.7871 323.88 67.5943 323.77 67.4518L317.521 59.3599C319.175 58.949 320.453 58.1577 321.345 57.0789C322.366 55.8427 322.848 54.2689 322.848 52.5567C322.848 50.6099 322.2 48.8442 320.827 47.5681C319.456 46.2946 317.42 45.5592 314.738 45.5592H300.636ZM129.699 56.8552C129.699 54.6915 130.572 52.912 132.145 51.6627C133.729 50.405 136.059 49.6584 138.999 49.6584C141.939 49.6584 144.252 50.4049 145.82 51.6613C147.377 52.9094 148.236 54.6888 148.236 56.8552C148.236 59.0029 147.38 60.7172 145.828 61.9075C144.261 63.1086 141.946 63.8045 138.999 63.8045C136.051 63.8045 133.72 63.1085 132.137 61.9062C130.569 60.7146 129.699 59 129.699 56.8552ZM198.199 56.8552C198.199 54.6915 199.071 52.912 200.645 51.6627C202.229 50.405 204.558 49.6584 207.498 49.6584C210.438 49.6584 212.751 50.4049 214.319 51.6613C215.877 52.9094 216.736 54.6888 216.736 56.8552C216.736 59.0029 215.88 60.7172 214.327 61.9075C212.761 63.1086 210.446 63.8045 207.498 63.8045C204.551 63.8045 202.219 63.1085 200.637 61.9062C199.068 60.7146 198.199 59 198.199 56.8552ZM110.625 49.9676H101.263V55.2385H110.625C111.78 55.2385 112.654 54.9673 113.228 54.516C113.788 54.0766 114.111 53.4307 114.111 52.5567C114.111 51.8396 113.801 51.2078 113.224 50.7451C112.642 50.2774 111.764 49.9676 110.625 49.9676ZM305.252 55.2385V49.9676H314.614C315.753 49.9676 316.631 50.2774 317.214 50.7451C317.79 51.2078 318.1 51.8396 318.1 52.5567C318.1 53.4307 317.777 54.0766 317.217 54.516C316.643 54.9673 315.769 55.2385 314.614 55.2385H305.252ZM18.843 50.2871L14.5457 57.898H22.6226L18.843 50.2871Z" fill="#EDECEC"/>
<path d="M210.438 13.1881C207.016 9.76631 206.374 2.85148 206.303 0C206.232 2.85148 205.59 9.76631 202.169 13.1881C198.747 16.5386 191.903 17.1089 189.123 17.1802C191.903 17.2514 198.747 17.8217 202.169 21.1722C205.59 24.594 206.232 31.5088 206.303 34.3603C206.374 31.5088 207.016 24.594 210.438 21.1722C213.86 17.8217 220.703 17.2514 223.483 17.1802C220.703 17.1089 213.86 16.5386 210.438 13.1881Z" fill="#FFA11A"/>
<path d="M112.56 20.634C114.785 22.8582 115.202 27.3528 115.248 29.2063C115.294 27.3528 115.711 22.8582 117.935 20.634C120.16 18.4562 124.608 18.0855 126.415 18.0392C124.608 17.9928 120.16 17.6221 117.935 15.4443C115.711 13.2202 115.294 8.72552 115.248 6.87206C115.202 8.72552 114.785 13.2202 112.56 15.4443C110.336 17.6221 105.888 17.9928 104.081 18.0392C105.888 18.0855 110.336 18.4562 112.56 20.634Z" fill="#049CF1"/>
<path d="M183.661 101.335C186.315 103.989 186.813 109.352 186.868 111.564C186.923 109.352 187.421 103.989 190.075 101.335C192.729 98.7359 198.037 98.2936 200.193 98.2383C198.037 98.183 192.729 97.7407 190.075 95.142C187.421 92.4879 186.923 87.1246 186.868 84.9129C186.813 87.1246 186.315 92.4879 183.661 95.142C181.007 97.7407 175.699 98.183 173.543 98.2383C175.699 98.2936 181.007 98.7359 183.661 101.335Z" fill="#F4442C"/>
<circle cx="152.304" cy="25.7917" r="3.13538" fill="#8F8E8C"/>
<circle cx="130.807" cy="88.9073" r="3.13538" fill="#00B35D"/>
<circle cx="222.85" cy="93.7607" r="3.13538" fill="#8F8E8C"/>
</svg>
