<svg width="400px" height="41px" viewBox="0 0 400 41" version="1.1" xmlns="http://www.w3.org/2000/svg" xmlns:xlink="http://www.w3.org/1999/xlink"><defs><linearGradient x1="-0.798501419%" y1="49.4865275%" x2="100.072761%" y2="50.5420469%" id="linearGradient-emxm-1zxs0-1"><stop stop-color="#3F2870" offset="0%"/><stop stop-color="#9377D1" offset="100%"/></linearGradient></defs><g id="Symbols" stroke="none" stroke-width="1" fill="none" fill-rule="evenodd"><g id="astronomer-logo" fill="url(#linearGradient-emxm-1zxs0-1)"><path d="M51.5801386,1.50895857 C49.487622,2.51511758 47.8868298,3.86338186 46.774367,5.55207167 C45.6613382,7.2418813 45.1056727,9.09238522 45.1056727,11.1041433 C45.1056727,13.6864502 45.7094356,15.7553191 46.9180931,17.3113102 C48.1273165,18.8684211 49.5555241,20.0162374 51.2055453,20.7558791 C52.8544349,21.4966405 55.0420144,22.2653975 57.7665865,23.06271 C59.7606451,23.5946249 61.3240911,24.087346 62.4569246,24.543673 C63.5880605,24.9988802 64.5279389,25.6069429 65.2765596,26.3656215 C66.0246145,27.12486 66.398642,28.112542 66.398642,29.3264278 C66.398642,30.9977604 65.6788796,32.4115342 64.2404866,33.5694289 C62.8020936,34.7278835 60.8351959,35.3057111 58.341491,35.3057111 C54.3901542,35.3057111 51.013156,33.8449048 48.2133258,30.9210526 L43.9547319,35.0218365 C45.335974,36.6539754 47.2632621,38.0587906 49.738294,39.2351624 C52.2127599,40.412654 55.0804923,41 58.341491,41 C61.2194087,41 63.7515915,40.468645 65.9380393,39.4059351 C68.125053,38.343785 69.802801,36.9204927 70.9735465,35.1349384 C72.1437261,33.3510638 72.7293818,31.4143337 72.7293818,29.3264278 C72.7293818,26.7452408 72.125053,24.6763718 70.9163955,23.1198208 C69.707738,21.5638298 68.2783986,20.4148936 66.6295091,19.674692 C64.9789221,18.9344905 62.7919083,18.1657335 60.068468,17.3684211 C58.0727118,16.8370661 56.5092658,16.3432251 55.3781299,15.8880179 C54.2458622,15.4322508 53.3065497,14.824748 52.5584948,14.0655095 C51.8098741,13.3068309 51.4358467,12.3202688 51.4358467,11.1041433 C51.4358467,9.5862262 52.0978922,8.30515118 53.4214175,7.26091825 C54.7449427,6.21668533 56.5766021,5.69484882 58.9175272,5.69484882 C60.6439383,5.69484882 62.2260574,6.04647256 63.6650163,6.74804031 C65.1039751,7.45128779 66.3216862,8.27659574 67.3192814,9.2256439 L71.5778752,5.12486002 C70.2730231,3.75867861 68.5183194,2.56270997 66.3120668,1.537514 C64.1058141,0.51287794 61.6409676,0 58.9175272,0 C56.1159994,0 53.6703919,0.503359462 51.5801386,1.50895857 L51.5801386,1.50895857 Z M251.876645,5.90033595 C253.644363,6.18365062 255.317018,6.76539754 256.88782,7.65901456 C259.190267,8.96864502 261.002688,10.7631579 262.326213,13.0408735 C263.649738,15.318589 264.311784,17.8051512 264.311784,20.5005599 C264.311784,23.1959686 263.649738,25.6825308 262.326213,27.9602464 C261.002688,30.2379619 259.190267,32.031355 256.88782,33.3409854 C254.585939,34.6511758 252.072995,35.3057111 249.348989,35.3057111 C246.624416,35.3057111 244.112038,34.6511758 241.810157,33.3409854 C241.528363,33.1808511 241.254491,33.0128779 240.986844,32.8381859 L238.747206,38.3796193 C241.951054,40.1226204 245.484227,41 249.348989,41 C253.300325,41 256.907059,40.0895857 260.168058,38.2670773 C263.428491,36.4445689 265.989532,33.9675252 267.851181,30.8353863 C269.711133,27.7038074 270.641958,24.2586786 270.641958,20.5005599 C270.641958,16.7418813 269.711133,13.2967525 267.851181,10.1646137 C265.989532,7.03303471 263.428491,4.55543113 260.168058,2.73348264 C258.255482,1.66461366 256.21955,0.91825308 254.069883,0.476483763 L251.876645,5.90033595 Z M168.890083,5.90033595 C170.657802,6.18365062 172.329325,6.76539754 173.900693,7.65901456 C176.20314,8.96864502 178.016127,10.7631579 179.339652,13.0408735 C180.663177,15.318589 181.324657,17.8051512 181.324657,20.5005599 C181.324657,23.1959686 180.663177,25.6825308 179.339652,27.9602464 C178.016127,30.2379619 176.20314,32.031355 173.900693,33.3409854 C171.598812,34.6511758 169.085302,35.3057111 166.361862,35.3057111 C163.63729,35.3057111 161.124912,34.6511758 158.82303,33.3409854 C158.541236,33.1808511 158.267365,33.0128779 158.000283,32.8381859 L155.760645,38.3796193 C158.964493,40.1226204 162.4971,41 166.361862,41 C170.313198,41 173.919932,40.0895857 177.180931,38.2670773 C180.441364,36.4445689 183.002405,33.9675252 184.864054,30.8353863 C186.724572,27.7038074 187.655397,24.2586786 187.655397,20.5005599 C187.655397,16.7418813 186.724572,13.2967525 184.864054,10.1646137 C183.002405,7.03303471 180.441364,4.55543113 177.180931,2.73348264 C175.268355,1.66461366 173.232989,0.91825308 171.08219,0.476483763 L168.890083,5.90033595 Z M368.635451,0.569428891 L368.635451,40.431131 L374.96619,40.431131 L374.96619,25.6254199 L384.4623,25.6254199 L392.806338,40.431131 L400,40.431131 L390.907342,24.600224 C393.247135,23.6131019 395.108219,22.0946249 396.490027,20.0447928 C397.870703,17.9944009 398.561041,15.6797312 398.561041,13.0968645 C398.561041,10.743561 397.99519,8.61870101 396.863488,6.71948488 C395.731787,4.82194849 394.158721,3.3225084 392.144292,2.22116461 C390.130994,1.12038074 387.857406,0.569428891 385.324657,0.569428891 L368.635451,0.569428891 Z M374.96619,6.26371781 L385.324657,6.26371781 C387.358325,6.26371781 389.0174,6.90033595 390.303013,8.1718925 C391.587495,9.44400896 392.230867,11.0856663 392.230867,13.0968645 C392.230867,15.0716685 391.587495,16.7043673 390.303013,17.9944009 C389.0174,19.2855543 387.358325,19.9305711 385.324657,19.9305711 L374.96619,19.9305711 L374.96619,6.26371781 Z M330.249257,0.569428891 L330.249257,40.431131 L359.311359,40.431131 L359.311359,34.7362822 L336.579431,34.7362822 L336.579431,22.6069429 L354.132126,22.6069429 L354.132126,16.912654 L336.579431,16.912654 L336.579431,6.26371781 L358.736455,6.26371781 L358.736455,0.569428891 L330.249257,0.569428891 Z M314.653841,0.569428891 L299.460744,19.8734602 L299.345311,19.8734602 L284.15278,0.569428891 L278.340359,0.569428891 L278.340359,40.431131 L284.670533,40.431131 L284.670533,11.274916 L284.900835,11.274916 L299.345311,29.6114222 L313.790352,11.274916 L314.020654,11.274916 L314.020654,40.431131 L320.351393,40.431131 L320.351393,0.569428891 L314.653841,0.569428891 Z M223.875513,0.569428891 L223.875513,29.668533 L223.702362,29.668533 L201.718489,0.569428891 L195.963786,0.569428891 L195.963786,40.431131 L202.29396,40.431131 L202.29396,11.3320269 L202.46711,11.3320269 L224.450983,40.431131 L230.205687,40.431131 L230.205687,0.569428891 L223.875513,0.569428891 Z M118.262272,0.569428891 L118.262272,40.431131 L124.593012,40.431131 L124.593012,25.6254199 L134.088556,25.6254199 L142.433725,40.431131 L149.626821,40.431131 L140.534163,24.600224 C142.873391,23.6131019 144.73504,22.0946249 146.116282,20.0447928 C147.496959,17.9944009 148.187862,15.6797312 148.187862,13.0968645 C148.187862,10.743561 147.622012,8.61870101 146.49031,6.71948488 C145.358042,4.82194849 143.785543,3.3225084 141.771113,2.22116461 C139.756684,1.12038074 137.483661,0.569428891 134.951478,0.569428891 L118.262272,0.569428891 Z M124.593012,6.26371781 L134.951478,6.26371781 C136.985146,6.26371781 138.643655,6.90033595 139.929269,8.1718925 C141.214316,9.44400896 141.857688,11.0856663 141.857688,13.0968645 C141.857688,15.0716685 141.214316,16.7043673 139.929269,17.9944009 C138.643655,19.2855543 136.985146,19.9305711 134.951478,19.9305711 L124.593012,19.9305711 L124.593012,6.26371781 Z M78.8060546,0.569428891 L78.8060546,6.26371781 L90.8914981,6.26371781 L90.8914981,40.431131 L97.2222379,40.431131 L97.2222379,6.26371781 L109.307116,6.26371781 L109.307116,0.569428891 L78.8060546,0.569428891 Z M16.0927995,0.62150056 L0,40.431131 L6.49483661,40.431131 L10.5180365,30.1942889 L28.2840572,30.1942889 L32.3576178,40.431131 L39.0821898,40.431131 L28.6909039,14.7256439 L22.1892771,14.7256439 L26.0359315,24.5072788 L12.8165228,24.5072788 L22.2085161,0.62150056 L16.0927995,0.62150056 Z"/></g></g></svg>